<svg width="24" height="18" viewBox="0 0 24 18" fill="none" xmlns="http://www.w3.org/2000/svg">
<path fill-rule="evenodd" clip-rule="evenodd" d="M0 2.60001C0 1.96349 0.252856 1.35304 0.702944 0.902956C1.15303 0.452869 1.76348 0.200012 2.4 0.200012H21.6C22.2365 0.200012 22.847 0.452869 23.2971 0.902956C23.7471 1.35304 24 1.96349 24 2.60001V15.4C24 16.0365 23.7471 16.647 23.2971 17.0971C22.847 17.5472 22.2365 17.8 21.6 17.8H2.4C1.76348 17.8 1.15303 17.5472 0.702944 17.0971C0.252856 16.647 0 16.0365 0 15.4L0 2.60001ZM4.8 6.60001C4.8 5.75132 5.13714 4.93739 5.73726 4.33727C6.33737 3.73715 7.15131 3.40001 8 3.40001C8.84869 3.40001 9.66263 3.73715 10.2627 4.33727C10.8629 4.93739 11.2 5.75132 11.2 6.60001C11.2 7.44871 10.8629 8.26264 10.2627 8.86275C9.66263 9.46287 8.84869 9.80001 8 9.80001C7.15131 9.80001 6.33737 9.46287 5.73726 8.86275C5.13714 8.26264 4.8 7.44871 4.8 6.60001ZM19.2 6.60001H14.4V5.00001H19.2V6.60001ZM19.2 11.4H14.4V9.80001H19.2V11.4ZM8 11.4C7.13039 11.4006 6.27807 11.643 5.53833 12.1002C4.79859 12.5573 4.2006 13.2113 3.8112 13.9888L3.2832 15.0416C3.22202 15.1637 3.19311 15.2994 3.19923 15.4358C3.20534 15.5723 3.24628 15.7048 3.31813 15.821C3.38999 15.9371 3.49038 16.0329 3.60973 16.0992C3.72909 16.1656 3.86344 16.2003 4 16.2H12C12.1364 16.2 12.2706 16.1651 12.3897 16.0987C12.5089 16.0322 12.609 15.9364 12.6807 15.8203C12.7524 15.7042 12.7931 15.5717 12.7992 15.4354C12.8052 15.2991 12.7763 15.1636 12.7152 15.0416L12.1888 13.9888C11.7994 13.2113 11.2014 12.5573 10.4617 12.1002C9.72193 11.643 8.86961 11.4006 8 11.4Z" fill="#2CBBD2"/>
</svg>
