<svg width="22" height="22" viewBox="0 0 22 22" fill="none" xmlns="http://www.w3.org/2000/svg">
<path d="M17.6 2.93333H19.8C20.3835 2.93333 20.9431 3.16512 21.3556 3.5777C21.7682 3.99028 22 4.54986 22 5.13333V19.8C22 20.3835 21.7682 20.9431 21.3556 21.3556C20.9431 21.7682 20.3835 22 19.8 22H2.2C1.61652 22 1.05695 21.7682 0.644365 21.3556C0.231785 20.9431 0 20.3835 0 19.8L0 5.13333C0 4.54986 0.231785 3.99028 0.644365 3.5777C1.05695 3.16512 1.61652 2.93333 2.2 2.93333H4.4V0H5.86667V2.93333H16.1333V0H17.6V2.93333Z" fill="#F2484B"/>
</svg>
