<svg width="22" height="22" viewBox="0 0 22 22" fill="none" xmlns="http://www.w3.org/2000/svg">
<path d="M11.0002 0.200043C12.4324 0.200043 13.8059 0.768969 14.8186 1.78167C15.8313 2.79436 16.4002 4.16787 16.4002 5.60004C16.4002 7.03221 15.8313 8.40572 14.8186 9.41842C13.8059 10.4311 12.4324 11 11.0002 11C9.56803 11 8.19452 10.4311 7.18182 9.41842C6.16912 8.40572 5.6002 7.03221 5.6002 5.60004C5.6002 4.16787 6.16912 2.79436 7.18182 1.78167C8.19452 0.768969 9.56803 0.200043 11.0002 0.200043ZM11.0002 13.7C16.9672 13.7 21.8002 16.1165 21.8002 19.1V21.8H0.200195V19.1C0.200195 16.1165 5.0332 13.7 11.0002 13.7Z" fill="#2CBBD2"/>
</svg>
